<svg xmlns="http://www.w3.org/2000/svg" width="36" height="36" viewBox="0 0 36 36" fill="none">
  <g filter="url(#filter0_d_108_675)">
    <path d="M3.87865 16.9394L9.87865 10.9394C10.017 10.7962 10.1825 10.6819 10.3655 10.6033C10.5486 10.5247 10.7454 10.4833 10.9446 10.4816C11.1437 10.4798 11.3412 10.5178 11.5256 10.5932C11.7099 10.6686 11.8774 10.78 12.0182 10.9208C12.1591 11.0617 12.2705 11.2292 12.3459 11.4135C12.4213 11.5979 12.4593 11.7954 12.4575 11.9945C12.4558 12.1937 12.4144 12.3905 12.3358 12.5735C12.2572 12.7566 12.1429 12.9221 11.9997 13.0604L8.56015 16.4999H25.9392C26.337 16.4999 26.7185 16.658 26.9998 16.9393C27.2811 17.2206 27.4392 17.6021 27.4392 17.9999C27.4392 18.3978 27.2811 18.7793 26.9998 19.0606C26.7185 19.3419 26.337 19.4999 25.9392 19.4999H8.56015L11.9997 22.9394C12.1429 23.0778 12.2572 23.2433 12.3358 23.4263C12.4144 23.6093 12.4558 23.8062 12.4575 24.0053C12.4593 24.2045 12.4213 24.402 12.3459 24.5864C12.2705 24.7707 12.1591 24.9382 12.0182 25.079C11.8774 25.2199 11.7099 25.3313 11.5256 25.4067C11.3412 25.4821 11.1437 25.52 10.9446 25.5183C10.7454 25.5166 10.5486 25.4752 10.3655 25.3966C10.1825 25.318 10.017 25.2037 9.87865 25.0604L3.87865 19.0604C3.59745 18.7791 3.43947 18.3977 3.43947 17.9999C3.43947 17.6022 3.59745 17.2207 3.87865 16.9394ZM30.4392 5.99994V29.9999C30.4392 30.3978 30.5972 30.7793 30.8785 31.0606C31.1598 31.3419 31.5413 31.4999 31.9392 31.4999C32.337 31.4999 32.7185 31.3419 32.9998 31.0606C33.2811 30.7793 33.4392 30.3978 33.4392 29.9999V5.99994C33.4392 5.60211 33.2811 5.22058 32.9998 4.93928C32.7185 4.65797 32.337 4.49994 31.9392 4.49994C31.5413 4.49994 31.1598 4.65797 30.8785 4.93928C30.5972 5.22058 30.4392 5.60211 30.4392 5.99994Z" fill="white"/>
  </g>
  <defs>
    <filter id="filter0_d_108_675" x="0" y="0" width="38" height="38" filterUnits="userSpaceOnUse" color-interpolation-filters="sRGB">
      <feFlood flood-opacity="0" result="BackgroundImageFix"/>
      <feColorMatrix in="SourceAlpha" type="matrix" values="0 0 0 0 0 0 0 0 0 0 0 0 0 0 0 0 0 0 127 0" result="hardAlpha"/>
      <feOffset dx="2" dy="2"/>
      <feComposite in2="hardAlpha" operator="out"/>
      <feColorMatrix type="matrix" values="0 0 0 0 1 0 0 0 0 1 0 0 0 0 1 0 0 0 1 0"/>
      <feBlend mode="normal" in2="BackgroundImageFix" result="effect1_dropShadow_108_675"/>
      <feBlend mode="normal" in="SourceGraphic" in2="effect1_dropShadow_108_675" result="shape"/>
    </filter>
  </defs>
</svg>