<svg xmlns="http://www.w3.org/2000/svg" width="20" height="20" viewBox="0 0 20 20" fill="none">
  <path d="M1 20H19C19.2652 20 19.5196 19.8946 19.7071 19.7071C19.8946 19.5196 20 19.2652 20 19V15C20 14.7348 19.8946 14.4804 19.7071 14.2929C19.5196 14.1054 19.2652 14 19 14H18V9H19C19.2652 9 19.5196 8.89465 19.7071 8.70711C19.8946 8.51958 20 8.26522 20 8V5C20 4.80652 19.9439 4.61719 19.8385 4.45495C19.7331 4.29272 19.5828 4.16456 19.406 4.086L10.406 0.0860049C10.2782 0.0292187 10.1399 -0.00012207 10 -0.00012207C9.86013 -0.00012207 9.72182 0.0292187 9.594 0.0860049L0.594 4.086C0.417181 4.16456 0.266948 4.29272 0.161515 4.45495C0.0560811 4.61719 -2.45488e-05 4.80652 8.05774e-09 5V8C8.05774e-09 8.26522 0.105357 8.51958 0.292893 8.70711C0.48043 8.89465 0.734784 9 1 9H2V14H1C0.734784 14 0.48043 14.1054 0.292893 14.2929C0.105357 14.4804 8.05774e-09 14.7348 8.05774e-09 15V19C8.05774e-09 19.2652 0.105357 19.5196 0.292893 19.7071C0.48043 19.8946 0.734784 20 1 20ZM2 5.65L10 2.094L18 5.65V7H2V5.65ZM16 9V14H13.333V9H16ZM11.333 9V14H8.667V9H11.333ZM6.667 9V14H4V9H6.667ZM2 16H18V18H2V16ZM12 5C12 5.26522 11.8946 5.51958 11.7071 5.70711C11.5196 5.89465 11.2652 6 11 6H9C8.73478 6 8.48043 5.89465 8.29289 5.70711C8.10536 5.51958 8 5.26522 8 5C8 4.73479 8.10536 4.48043 8.29289 4.2929C8.48043 4.10536 8.73478 4 9 4H11C11.2652 4 11.5196 4.10536 11.7071 4.2929C11.8946 4.48043 12 4.73479 12 5Z" fill="white"/>
</svg>