<svg xmlns="http://www.w3.org/2000/svg" width="24" height="24" viewBox="0 0 24 24" fill="none">
  <path d="M5 20.816V21.5C5 21.8978 5.15804 22.2794 5.43934 22.5607C5.72064 22.842 6.10218 23 6.5 23C6.89782 23 7.27936 22.842 7.56066 22.5607C7.84196 22.2794 8 21.8978 8 21.5V21H16V21.5C16 21.8978 16.158 22.2794 16.4393 22.5607C16.7206 22.842 17.1022 23 17.5 23C17.8978 23 18.2794 22.842 18.5607 22.5607C18.842 22.2794 19 21.8978 19 21.5V20.816C19.5829 20.6099 20.0879 20.2288 20.4459 19.7247C20.8039 19.2206 20.9974 18.6183 21 18V4C21 3.20435 20.6839 2.44129 20.1213 1.87868C19.5587 1.31607 18.7956 1 18 1H6C5.20435 1 4.44129 1.31607 3.87868 1.87868C3.31607 2.44129 3 3.20435 3 4V18C3.00256 18.6183 3.19608 19.2206 3.55409 19.7247C3.91209 20.2288 4.41709 20.6099 5 20.816ZM5 4C5 3.73478 5.10536 3.48043 5.29289 3.29289C5.48043 3.10536 5.73478 3 6 3H18C18.2652 3 18.5196 3.10536 18.7071 3.29289C18.8946 3.48043 19 3.73478 19 4V5H5V4ZM5 7H19V13H5V7ZM5 15H19V18C19 18.2652 18.8946 18.5196 18.7071 18.7071C18.5196 18.8946 18.2652 19 18 19H6C5.73478 19 5.48043 18.8946 5.29289 18.7071C5.10536 18.5196 5 18.2652 5 18V15ZM6 17C6 16.8022 6.05865 16.6089 6.16853 16.4444C6.27841 16.28 6.43459 16.1518 6.61732 16.0761C6.80004 16.0004 7.00111 15.9806 7.19509 16.0192C7.38907 16.0578 7.56725 16.153 7.70711 16.2929C7.84696 16.4327 7.9422 16.6109 7.98079 16.8049C8.01937 16.9989 7.99957 17.2 7.92388 17.3827C7.84819 17.5654 7.72002 17.7216 7.55557 17.8315C7.39112 17.9414 7.19778 18 7 18C6.73478 18 6.48043 17.8946 6.29289 17.7071C6.10536 17.5196 6 17.2652 6 17ZM16 17C16 16.8022 16.0586 16.6089 16.1685 16.4444C16.2784 16.28 16.4346 16.1518 16.6173 16.0761C16.8 16.0004 17.0011 15.9806 17.1951 16.0192C17.3891 16.0578 17.5673 16.153 17.7071 16.2929C17.847 16.4327 17.9422 16.6109 17.9808 16.8049C18.0194 16.9989 17.9996 17.2 17.9239 17.3827C17.8482 17.5654 17.72 17.7216 17.5556 17.8315C17.3911 17.9414 17.1978 18 17 18C16.7348 18 16.4804 17.8946 16.2929 17.7071C16.1054 17.5196 16 17.2652 16 17Z" fill="black"/>
</svg>