<svg xmlns="http://www.w3.org/2000/svg" width="16" height="16" viewBox="0 0 16 16" fill="none">
  <path d="M2.86195 12.1953L7.05728 8L2.86195 3.80467C2.74051 3.67894 2.67331 3.51053 2.67483 3.33574C2.67635 3.16094 2.74646 2.99373 2.87007 2.87012C2.99367 2.74652 3.16088 2.67641 3.33568 2.67489C3.51048 2.67337 3.67888 2.74056 3.80461 2.862L7.99995 7.05734L12.1953 2.862C12.2568 2.79833 12.3303 2.74754 12.4117 2.7126C12.493 2.67766 12.5805 2.65927 12.669 2.6585C12.7575 2.65773 12.8453 2.6746 12.9272 2.70812C13.0092 2.74164 13.0836 2.79114 13.1462 2.85374C13.2088 2.91633 13.2583 2.99077 13.2918 3.0727C13.3253 3.15463 13.3422 3.24242 13.3414 3.33094C13.3407 3.41946 13.3223 3.50694 13.2873 3.58827C13.2524 3.66961 13.2016 3.74317 13.1379 3.80467L8.94261 8L13.1379 12.1953C13.2016 12.2568 13.2524 12.3304 13.2873 12.4117C13.3223 12.4931 13.3407 12.5806 13.3414 12.6691C13.3422 12.7576 13.3253 12.8454 13.2918 12.9273C13.2583 13.0092 13.2088 13.0837 13.1462 13.1463C13.0836 13.2089 13.0092 13.2584 12.9272 13.2919C12.8453 13.3254 12.7575 13.3423 12.669 13.3415C12.5805 13.3407 12.493 13.3223 12.4117 13.2874C12.3303 13.2525 12.2568 13.2017 12.1953 13.138L7.99995 8.94267L3.80461 13.138C3.67888 13.2594 3.51048 13.3266 3.33568 13.3251C3.16088 13.3236 2.99367 13.2535 2.87007 13.1299C2.74646 13.0063 2.67635 12.8391 2.67483 12.6643C2.67331 12.4895 2.74051 12.3211 2.86195 12.1953Z" fill="white"/>
</svg>