<svg xmlns="http://www.w3.org/2000/svg" width="42" height="42" viewBox="0 0 42 42" fill="none">
  <g filter="url(#filter0_i_107_472)">
    <path d="M35 5.25H7C5.60761 5.25 4.27226 5.80312 3.28769 6.78769C2.30312 7.77226 1.75 9.10761 1.75 10.5V31.5C1.75 32.8924 2.30312 34.2277 3.28769 35.2123C4.27226 36.1969 5.60761 36.75 7 36.75H35C36.3924 36.75 37.7277 36.1969 38.7123 35.2123C39.6969 34.2277 40.25 32.8924 40.25 31.5V10.5C40.25 9.10761 39.6969 7.77226 38.7123 6.78769C37.7277 5.80312 36.3924 5.25 35 5.25ZM36.75 31.5C36.75 31.9641 36.5656 32.4093 36.2374 32.7374C35.9092 33.0656 35.4641 33.25 35 33.25H7C6.53587 33.25 6.09075 33.0656 5.76256 32.7374C5.43437 32.4093 5.25 31.9641 5.25 31.5V10.5C5.25 10.0359 5.43437 9.59075 5.76256 9.26256C6.09075 8.93437 6.53587 8.75 7 8.75H35C35.4641 8.75 35.9092 8.93437 36.2374 9.26256C36.5656 9.59075 36.75 10.0359 36.75 10.5V31.5ZM33.25 28C33.25 28.4641 33.0656 28.9093 32.7374 29.2374C32.4093 29.5656 31.9641 29.75 31.5 29.75H26.25C25.7859 29.75 25.3408 29.5656 25.0126 29.2374C24.6844 28.9093 24.5 28.4641 24.5 28C24.5 27.5359 24.6844 27.0908 25.0126 26.7626C25.3408 26.4344 25.7859 26.25 26.25 26.25H31.5C31.9641 26.25 32.4093 26.4344 32.7374 26.7626C33.0656 27.0908 33.25 27.5359 33.25 28ZM15.75 15.75C15.75 16.4422 15.5447 17.1189 15.1601 17.6945C14.7756 18.2701 14.2289 18.7187 13.5894 18.9836C12.9499 19.2485 12.2461 19.3178 11.5672 19.1827C10.8883 19.0477 10.2646 18.7144 9.77513 18.2249C9.28564 17.7354 8.9523 17.1117 8.81725 16.4328C8.6822 15.7539 8.75151 15.0501 9.01642 14.4106C9.28133 13.7711 9.72993 13.2244 10.3055 12.8399C10.8811 12.4553 11.5578 12.25 12.25 12.25C13.1783 12.25 14.0685 12.6187 14.7249 13.2751C15.3813 13.9315 15.75 14.8217 15.75 15.75Z" fill="white"/>
  </g>
  <defs>
    <filter id="filter0_i_107_472" x="0" y="0" width="43" height="43.8" filterUnits="userSpaceOnUse" color-interpolation-filters="sRGB">
      <feFlood flood-opacity="0" result="BackgroundImageFix"/>
      <feBlend mode="normal" in="SourceGraphic" in2="BackgroundImageFix" result="shape"/>
      <feColorMatrix in="SourceAlpha" type="matrix" values="0 0 0 0 0 0 0 0 0 0 0 0 0 0 0 0 0 0 127 0" result="hardAlpha"/>
      <feOffset dx="1" dy="1.8"/>
      <feGaussianBlur stdDeviation="1.5"/>
      <feComposite in2="hardAlpha" operator="arithmetic" k2="-1" k3="1"/>
      <feColorMatrix type="matrix" values="0 0 0 0 0.0980392 0 0 0 0 0.0980392 0 0 0 0 0.2 0 0 0 1 0"/>
      <feBlend mode="normal" in2="shape" result="effect1_innerShadow_107_472"/>
    </filter>
  </defs>
</svg>