<svg xmlns="http://www.w3.org/2000/svg" width="41" height="41" viewBox="0 0 41 41" fill="none">
  <g filter="url(#filter0_i_107_522)">
    <path d="M6.83325 35.875H34.1666C35.5258 35.875 36.8294 35.335 37.7905 34.3739C38.7516 33.4128 39.2916 32.1092 39.2916 30.75V10.25C39.2916 8.89077 38.7516 7.5872 37.7905 6.62608C36.8294 5.66495 35.5258 5.125 34.1666 5.125H6.83325C5.47402 5.125 4.17045 5.66495 3.20933 6.62608C2.24821 7.5872 1.70825 8.89077 1.70825 10.25V30.75C1.70825 32.1092 2.24821 33.4128 3.20933 34.3739C4.17045 35.335 5.47402 35.875 6.83325 35.875ZM5.12492 10.25C5.12492 9.79692 5.3049 9.3624 5.62528 9.04203C5.94565 8.72165 6.38017 8.54167 6.83325 8.54167H34.1666C34.6197 8.54167 35.0542 8.72165 35.3746 9.04203C35.6949 9.3624 35.8749 9.79692 35.8749 10.25V30.75C35.8749 31.2031 35.6949 31.6376 35.3746 31.958C35.0542 32.2784 34.6197 32.4583 34.1666 32.4583H6.83325C6.38017 32.4583 5.94565 32.2784 5.62528 31.958C5.3049 31.6376 5.12492 31.2031 5.12492 30.75V10.25ZM8.54159 27.3333C8.54159 26.8803 8.72157 26.4457 9.04195 26.1254C9.36232 25.805 9.79684 25.625 10.2499 25.625H15.3749C15.828 25.625 16.2625 25.805 16.5829 26.1254C16.9033 26.4457 17.0833 26.8803 17.0833 27.3333C17.0833 27.7864 16.9033 28.2209 16.5829 28.5413C16.2625 28.8617 15.828 29.0417 15.3749 29.0417H10.2499C9.79684 29.0417 9.36232 28.8617 9.04195 28.5413C8.72157 28.2209 8.54159 27.7864 8.54159 27.3333ZM8.54159 22.2083C8.54159 21.7553 8.72157 21.3207 9.04195 21.0004C9.36232 20.68 9.79684 20.5 10.2499 20.5H20.4999C20.953 20.5 21.3875 20.68 21.7079 21.0004C22.0283 21.3207 22.2083 21.7553 22.2083 22.2083C22.2083 22.6614 22.0283 23.0959 21.7079 23.4163C21.3875 23.7367 20.953 23.9167 20.4999 23.9167H10.2499C9.79684 23.9167 9.36232 23.7367 9.04195 23.4163C8.72157 23.0959 8.54159 22.6614 8.54159 22.2083Z" fill="white"/>
  </g>
  <defs>
    <filter id="filter0_i_107_522" x="0" y="0" width="42" height="42.8" filterUnits="userSpaceOnUse" color-interpolation-filters="sRGB">
      <feFlood flood-opacity="0" result="BackgroundImageFix"/>
      <feBlend mode="normal" in="SourceGraphic" in2="BackgroundImageFix" result="shape"/>
      <feColorMatrix in="SourceAlpha" type="matrix" values="0 0 0 0 0 0 0 0 0 0 0 0 0 0 0 0 0 0 127 0" result="hardAlpha"/>
      <feOffset dx="1" dy="1.8"/>
      <feGaussianBlur stdDeviation="1.5"/>
      <feComposite in2="hardAlpha" operator="arithmetic" k2="-1" k3="1"/>
      <feColorMatrix type="matrix" values="0 0 0 0 0.0784314 0 0 0 0 0.0745098 0 0 0 0 0.14902 0 0 0 1 0"/>
      <feBlend mode="normal" in2="shape" result="effect1_innerShadow_107_522"/>
    </filter>
  </defs>
</svg>