<svg xmlns="http://www.w3.org/2000/svg" width="17" height="16" viewBox="0 0 17 16" fill="none">
  <path d="M8.03634 8.12837L8.23755 7.12226C8.23756 7.12223 8.23756 7.1222 8.23757 7.12218C8.27554 6.93247 8.36884 6.75813 8.50569 6.62121C8.50572 6.62118 8.50575 6.62115 8.50578 6.62112L11.6468 3.48009L12.6846 4.51789L9.54346 7.65902L10.2506 8.36613L9.54346 7.65902C9.40668 7.7958 9.23231 7.88915 9.04254 7.92714C9.0425 7.92715 9.04247 7.92716 9.04244 7.92716L8.03634 8.12837ZM14.9007 2.30179L14.0988 3.10368L13.061 2.06589L13.8629 1.26399L13.863 1.26396C14.1495 0.977451 14.6141 0.977377 14.9007 1.26402L15.5969 0.567767L14.9007 1.26402C15.1873 1.55059 15.1873 2.0152 14.9007 2.30177L14.9007 2.30179Z" stroke="white" stroke-width="2" stroke-linecap="round" stroke-linejoin="round"/>
  <mask id="path-2-inside-1_43_252" fill="white">
    <path d="M14.2447 11.2739V14.0801C14.2447 15.1134 13.4071 15.9509 12.3739 15.9509H2.08443C1.05121 15.9509 0.213623 15.1134 0.213623 14.0801V3.79066C0.213623 2.75744 1.05121 1.91985 2.08443 1.91985H4.89065"/>
  </mask>
  <path d="M16.2447 11.2739C16.2447 10.1693 15.3493 9.2739 14.2447 9.2739C13.1401 9.2739 12.2447 10.1693 12.2447 11.2739H16.2447ZM4.89065 3.91985C5.99522 3.91985 6.89065 3.02442 6.89065 1.91985C6.89065 0.815276 5.99522 -0.0801544 4.89065 -0.0801544V3.91985ZM12.2447 11.2739V14.0801H16.2447V11.2739H12.2447ZM12.2447 14.0801C12.2447 14.0088 12.3026 13.9509 12.3739 13.9509V17.9509C14.5117 17.9509 16.2447 16.2179 16.2447 14.0801H12.2447ZM12.3739 13.9509H2.08443V17.9509H12.3739V13.9509ZM2.08443 13.9509C2.15576 13.9509 2.21362 14.0088 2.21362 14.0801H-1.78638C-1.78638 16.218 -0.0533365 17.9509 2.08443 17.9509V13.9509ZM2.21362 14.0801V3.79066H-1.78638V14.0801H2.21362ZM2.21362 3.79066C2.21362 3.86201 2.15578 3.91985 2.08443 3.91985V-0.0801544C-0.053356 -0.0801544 -1.78638 1.65287 -1.78638 3.79066H2.21362ZM2.08443 3.91985H4.89065V-0.0801544H2.08443V3.91985Z" fill="white" mask="url(#path-2-inside-1_43_252)"/>
</svg>