<svg xmlns="http://www.w3.org/2000/svg" width="24" height="24" viewBox="0 0 24 24" fill="none">
  <path d="M21.707 5.56503L18.435 2.29303C18.2475 2.10556 17.9932 2.00024 17.728 2.00024C17.4628 2.00024 17.2085 2.10556 17.021 2.29303L3.93 15.384C3.81993 15.4933 3.73704 15.6269 3.688 15.774L2.052 20.684C2.00196 20.8343 1.98832 20.9943 2.0122 21.1508C2.03608 21.3074 2.0968 21.456 2.18937 21.5845C2.28193 21.713 2.4037 21.8177 2.54463 21.8899C2.68556 21.9622 2.84164 21.9999 3 22C3.10747 22 3.2142 21.9825 3.316 21.948L8.226 20.312C8.37315 20.263 8.50673 20.1801 8.616 20.07L21.707 6.97903C21.8945 6.7915 21.9998 6.53719 21.9998 6.27203C21.9998 6.00687 21.8945 5.75256 21.707 5.56503ZM7.369 18.489L4.581 19.419L5.511 16.631L14.454 7.68703L16.313 9.54603L7.369 18.489ZM17.728 8.13203L15.868 6.27203L17.728 4.41403L19.586 6.27203L17.728 8.13203Z" fill="white"/>
</svg>