<svg xmlns="http://www.w3.org/2000/svg" width="24" height="24" viewBox="0 0 24 24" fill="none">
  <path d="M20.5 4.60895C19.9525 3.94655 19.265 3.41381 18.4868 3.04912C17.7087 2.68444 16.8594 2.49687 16 2.49995C14.5296 2.45543 13.0981 2.97614 12 3.95495C10.9019 2.97614 9.47036 2.45543 8 2.49995C7.14065 2.49687 6.29131 2.68444 5.51317 3.04912C4.73503 3.41381 4.04746 3.94655 3.5 4.60895C2.547 5.76495 1.55 7.85795 2.211 11.269C3.266 16.716 11.177 21.1859 11.511 21.3689C11.6599 21.452 11.8275 21.4955 11.998 21.4955C12.1685 21.4955 12.3361 21.452 12.485 21.3689C12.821 21.1819 20.732 16.712 21.785 11.269C22.45 7.85795 21.453 5.76495 20.5 4.60895ZM19.826 10.889C19.08 14.74 13.658 18.322 12 19.34C9.664 17.93 4.858 14.39 4.179 10.889C3.666 8.24295 4.368 6.70595 5.048 5.88195C5.4076 5.44806 5.85878 5.09913 6.36916 4.8602C6.87953 4.62126 7.43646 4.49824 8 4.49995C8.60189 4.45481 9.20521 4.56641 9.75113 4.82386C10.2971 5.08131 10.7669 5.47583 11.115 5.96895C11.2008 6.12689 11.3274 6.25891 11.4816 6.35127C11.6359 6.44363 11.812 6.49294 11.9918 6.49406C12.1715 6.49518 12.3483 6.44808 12.5036 6.35766C12.659 6.26723 12.7872 6.1368 12.875 5.97995C13.2224 5.48299 13.6933 5.08513 14.2413 4.8256C14.7893 4.56607 15.3954 4.45384 16 4.49995C16.5647 4.4972 17.123 4.61973 17.6347 4.8587C18.1463 5.09767 18.5986 5.44715 18.959 5.88195C19.637 6.70595 20.339 8.24295 19.826 10.889Z" fill="white"/>
</svg>