<svg xmlns="http://www.w3.org/2000/svg" width="93" height="55" viewBox="0 0 93 55" fill="none">
  <path d="M0.5 8C0.5 3.85786 3.85786 0.5 8 0.5H85C89.1421 0.5 92.5 3.85786 92.5 8V36C92.5 40.1421 89.1421 43.5 85 43.5H66.9931C66.5882 43.5 66.1895 43.5983 65.831 43.7865L47.1973 53.5692C46.7607 53.7984 46.2393 53.7984 45.8027 53.5692L27.169 43.7865C26.8105 43.5983 26.4118 43.5 26.0069 43.5H8C3.85786 43.5 0.5 40.1421 0.5 36V8Z" fill="currentColor" style="mix-blend-mode:overlay"/>
  <path d="M0.5 8C0.5 3.85786 3.85786 0.5 8 0.5H85C89.1421 0.5 92.5 3.85786 92.5 8V36C92.5 40.1421 89.1421 43.5 85 43.5H66.9931C66.5882 43.5 66.1895 43.5983 65.831 43.7865L47.1973 53.5692C46.7607 53.7984 46.2393 53.7984 45.8027 53.5692L27.169 43.7865C26.8105 43.5983 26.4118 43.5 26.0069 43.5H8C3.85786 43.5 0.5 40.1421 0.5 36V8Z" stroke="currentColor" style="mix-blend-mode:overlay"/>
</svg>