<svg xmlns="http://www.w3.org/2000/svg" width="22" height="22" viewBox="0 0 22 22" fill="none">
  <path d="M21.929 5.628L19.929 0.628C19.8546 0.442467 19.7264 0.283473 19.5608 0.171534C19.3952 0.0595947 19.1999 -0.000153042 19 2.94403e-07H3C2.80012 -0.000153042 2.60479 0.0595947 2.43919 0.171534C2.2736 0.283473 2.14535 0.442467 2.071 0.628L0.071 5.628C0.0241356 5.74643 4.71931e-05 5.87264 0 6V21C0 21.2652 0.105357 21.5196 0.292893 21.7071C0.48043 21.8946 0.734784 22 1 22H21C21.2652 22 21.5196 21.8946 21.7071 21.7071C21.8946 21.5196 22 21.2652 22 21V6C22 5.87264 21.9759 5.74643 21.929 5.628ZM3.677 2H18.323L19.523 5H2.477L3.677 2ZM2 20V7H20V20H2ZM14.707 12.293C14.8025 12.3852 14.8787 12.4956 14.9311 12.6176C14.9835 12.7396 15.0111 12.8708 15.0123 13.0036C15.0134 13.1364 14.9881 13.2681 14.9378 13.391C14.8875 13.5139 14.8133 13.6255 14.7194 13.7194C14.6255 13.8133 14.5139 13.8875 14.391 13.9378C14.2681 13.9881 14.1364 14.0134 14.0036 14.0123C13.8708 14.0111 13.7396 13.9835 13.6176 13.9311C13.4956 13.8787 13.3852 13.8025 13.293 13.707L12 12.414V17C12 17.2652 11.8946 17.5196 11.7071 17.7071C11.5196 17.8946 11.2652 18 11 18C10.7348 18 10.4804 17.8946 10.2929 17.7071C10.1054 17.5196 10 17.2652 10 17V12.414L8.707 13.707C8.5184 13.8892 8.2658 13.99 8.0036 13.9877C7.7414 13.9854 7.49059 13.8802 7.30518 13.6948C7.11977 13.5094 7.0146 13.2586 7.01233 12.9964C7.01005 12.7342 7.11084 12.4816 7.293 12.293L10.293 9.293C10.4805 9.10553 10.7348 9.00021 11 9.00021C11.2652 9.00021 11.5195 9.10553 11.707 9.293L14.707 12.293Z" fill="currentColor"/>
</svg>