<svg xmlns="http://www.w3.org/2000/svg" width="24" height="24" viewBox="0 0 24 24" fill="none">
  <g clip-path="url(#clip0_26_73)">
    <path d="M7.5 7.57031L7.50007 7.5M1.49997 6.30001L1.49998 9.6871C1.49998 10.4416 1.49998 10.8189 1.58725 11.1727C1.6646 11.4864 1.79212 11.7856 1.96487 12.0586C2.15975 12.3665 2.43194 12.6278 2.97633 13.1502L10.1073 19.994C11.2972 21.1359 11.8922 21.7069 12.5709 21.9167C13.1682 22.1013 13.8081 22.0947 14.4015 21.8979C15.0758 21.6742 15.6589 21.0911 16.8251 19.9249L19.9249 16.8251C21.0911 15.6589 21.6742 15.0758 21.8979 14.4015C22.0947 13.8082 22.1013 13.1682 21.9167 12.5709C21.7069 11.8922 21.1359 11.2972 19.994 10.1073L13.1503 2.97636C12.6278 2.43197 12.3666 2.15977 12.0586 1.96489C11.7856 1.79214 11.4865 1.66462 11.1728 1.58726C10.8189 1.5 10.4417 1.5 9.68712 1.5L6.29997 1.5C4.61981 1.5 3.77973 1.5 3.13799 1.82698C2.5735 2.1146 2.11456 2.57355 1.82694 3.13803C1.49996 3.77977 1.49996 4.61985 1.49997 6.30001Z" stroke="#FCEFEF" stroke-width="2" stroke-linecap="round"/>
  </g>
  <defs>
    <clipPath id="clip0_26_73">
      <rect width="24" height="24" fill="white"/>
    </clipPath>
  </defs>
</svg>