<svg xmlns="http://www.w3.org/2000/svg" width="24" height="24" viewBox="0 0 24 24" fill="none">
  <path d="M3.105 12.447C3.16839 12.574 3.25807 12.686 3.36808 12.7756C3.4781 12.8652 3.60593 12.9304 3.74309 12.9669C3.88024 13.0033 4.02357 13.0101 4.16356 12.9868C4.30355 12.9636 4.43699 12.9108 4.555 12.832L6 11.869V21C6 21.2652 6.10536 21.5196 6.2929 21.7071C6.48043 21.8946 6.73479 22 7 22H17C17.2652 22 17.5196 21.8946 17.7071 21.7071C17.8946 21.5196 18 21.2652 18 21V11.869L19.445 12.832C19.563 12.9108 19.6965 12.9636 19.8364 12.9868C19.9764 13.0101 20.1198 13.0033 20.2569 12.9669C20.3941 12.9304 20.5219 12.8652 20.6319 12.7756C20.7419 12.686 20.8316 12.574 20.895 12.447L22.895 8.447C22.9804 8.27609 23.015 8.0843 22.9948 7.89432C22.9746 7.70434 22.9004 7.52413 22.781 7.375L18.781 2.375C18.6873 2.25793 18.5684 2.16344 18.4332 2.09853C18.298 2.03362 18.15 1.99994 18 2H15C14.7348 2 14.4804 2.10536 14.2929 2.29289C14.1054 2.48043 14 2.73478 14 3C14 3.53043 13.7893 4.03914 13.4142 4.41421C13.0391 4.78929 12.5304 5 12 5C11.4696 5 10.9609 4.78929 10.5858 4.41421C10.2107 4.03914 10 3.53043 10 3C10 2.73478 9.89465 2.48043 9.70711 2.29289C9.51958 2.10536 9.26522 2 9 2H6C5.85004 1.99994 5.70198 2.03362 5.56679 2.09853C5.43159 2.16344 5.31273 2.25793 5.219 2.375L1.219 7.375C1.09958 7.52413 1.02538 7.70434 1.00518 7.89432C0.984977 8.0843 1.01962 8.27609 1.105 8.447L3.105 12.447ZM6.48 4H8.127C8.34869 4.85864 8.84942 5.61927 9.55049 6.16232C10.2516 6.70538 11.1132 7.00006 12 7.00006C12.8868 7.00006 13.7485 6.70538 14.4495 6.16232C15.1506 5.61927 15.6513 4.85864 15.873 4H17.52L20.82 8.125L19.612 10.54L17.555 9.168C17.4044 9.06752 17.2294 9.00981 17.0485 9.00103C16.8677 8.99224 16.6879 9.03272 16.5282 9.11813C16.3686 9.20354 16.2352 9.33068 16.1421 9.48599C16.0491 9.6413 16 9.81896 16 10V20H8V10C8.00003 9.81896 7.95091 9.6413 7.85788 9.48599C7.76485 9.33068 7.6314 9.20354 7.47177 9.11813C7.31214 9.03272 7.13232 8.99224 6.95149 9.00103C6.77066 9.00981 6.5956 9.06752 6.445 9.168L4.388 10.54L3.181 8.125L6.48 4Z" fill="black"/>
</svg>