<svg xmlns="http://www.w3.org/2000/svg" width="24" height="24" viewBox="0 0 24 24" fill="none">
  <path d="M23 13V21C23 21.2652 22.8946 21.5196 22.7071 21.7071C22.5196 21.8947 22.2652 22 22 22H2C1.73478 22 1.48043 21.8947 1.29289 21.7071C1.10536 21.5196 1 21.2652 1 21V13C1 12.7348 1.10536 12.4805 1.29289 12.2929C1.48043 12.1054 1.73478 12 2 12C2.26522 12 2.51957 12.1054 2.70711 12.2929C2.89464 12.4805 3 12.7348 3 13V20H21V13C21 12.7348 21.1054 12.4805 21.2929 12.2929C21.4804 12.1054 21.7348 12 22 12C22.2652 12 22.5196 12.1054 22.7071 12.2929C22.8946 12.4805 23 12.7348 23 13ZM12 18C12.2652 18 12.5196 17.8947 12.7071 17.7071C12.8946 17.5196 13 17.2652 13 17V5.41403L15.293 7.70703C15.4816 7.88919 15.7342 7.98998 15.9964 7.9877C16.2586 7.98543 16.5094 7.88026 16.6948 7.69485C16.8802 7.50944 16.9854 7.25863 16.9877 6.99643C16.99 6.73423 16.8892 6.48163 16.707 6.29303L12.707 2.29303C12.5195 2.10556 12.2652 2.00024 12 2.00024C11.7348 2.00024 11.4805 2.10556 11.293 2.29303L7.293 6.29303C7.19749 6.38528 7.12131 6.49562 7.0689 6.61763C7.01649 6.73963 6.9889 6.87085 6.98775 7.00363C6.9866 7.13641 7.0119 7.26809 7.06218 7.39098C7.11246 7.51388 7.18671 7.62553 7.2806 7.71943C7.3745 7.81332 7.48615 7.88757 7.60905 7.93785C7.73194 7.98813 7.86362 8.01344 7.9964 8.01228C8.12918 8.01113 8.2604 7.98354 8.3824 7.93113C8.50441 7.87872 8.61475 7.80254 8.707 7.70703L11 5.41403V17C11 17.2652 11.1054 17.5196 11.2929 17.7071C11.4804 17.8947 11.7348 18 12 18Z" fill="white"/>
</svg>